<?xml version="1.0" encoding="UTF-8" standalone="no"?>
<!-- Generator: Adobe Illustrator 20.0.0, SVG Export Plug-In . SVG Version: 6.00 Build 0)  -->

<svg
   xmlns:dc="http://purl.org/dc/elements/1.1/"
   xmlns:cc="http://creativecommons.org/ns#"
   xmlns:rdf="http://www.w3.org/1999/02/22-rdf-syntax-ns#"
   xmlns:svg="http://www.w3.org/2000/svg"
   xmlns="http://www.w3.org/2000/svg"
   xmlns:sodipodi="http://sodipodi.sourceforge.net/DTD/sodipodi-0.dtd"
   xmlns:inkscape="http://www.inkscape.org/namespaces/inkscape"
   version="1.1"
   id="White"
   x="0px"
   y="0px"
   viewBox="0 0 500 500"
   xml:space="preserve"
   inkscape:version="0.91 r13725"
   sodipodi:docname="Social Icons - Twitter (Color).svg"
   width="500"
   height="500"><metadata
     id="metadata11"><rdf:RDF><cc:Work
         rdf:about=""><dc:format>image/svg+xml</dc:format><dc:type
           rdf:resource="http://purl.org/dc/dcmitype/StillImage" /><dc:title /></cc:Work></rdf:RDF></metadata><defs
     id="defs9" /><sodipodi:namedview
     pagecolor="#ffffff"
     bordercolor="#666666"
     borderopacity="1"
     objecttolerance="10"
     gridtolerance="10"
     guidetolerance="10"
     inkscape:pageopacity="1"
     inkscape:pageshadow="2"
     inkscape:window-width="1920"
     inkscape:window-height="1057"
     id="namedview7"
     showgrid="false"
     inkscape:zoom="0.59"
     inkscape:cx="-560.16949"
     inkscape:cy="200"
     inkscape:window-x="-8"
     inkscape:window-y="-8"
     inkscape:window-maximized="1"
     inkscape:current-layer="White" /><style
     type="text/css"
     id="style3">
	.st0{fill:#FFFFFF;}
</style><path
     style="fill:#1da1f2;fill-opacity:1"
     d="M 62.5,0 C 28,0 0,28 0,62.5 l 0,375 C 0,472 28,500 62.5,500 l 375,0 C 472,500 500,472 500,437.5 l 0,-375 C 500,28 472,0 437.5,0 l -375,0 z"
     id="path4136" /><path
     style="fill:#ffffff;fill-opacity:1"
     d="m 310.125,123 c 18.375,0 35,7.75 46.75,20.25 14.625,-2.875 28.375,-8.125 40.75,-15.5 -4.875,15 -15,27.625 -28.25,35.5 13,-1.625 25.375,-5 36.875,-10.125 -8.625,12.875 -19.5,24.25 -32,33.25 0.125,2.75 0.125,5.5 0.125,8.25 C 374.375,279.25 309.875,377 192,377 c -36.125,0 -69.875,-10.62694 -98.125,-28.62695 5,0.625 10.12695,0.87695 15.25195,0.87695 29.99999,0 57.62305,-10.25 79.62305,-27.5 -28,-0.5 -51.75,-19 -59.875,-44.5 3.875,0.75 7.87305,1.12305 11.99805,1.12305 5.875,0 11.5,-0.74805 16.875,-2.24805 C 128.49806,270.25 106.375,244.25 106.375,213.25 l 0,-0.875 c 8.625,4.75 18.50001,7.625 29,8 -17.12499,-11.5 -28.5,-31.125 -28.5,-53.375 0,-11.75 3.125,-22.75 8.625,-32.25 31.625,38.75 78.875,64.375 132.125,67 C 246.625,197 246,192.125 246,187.125 246,151.75 274.75,123 310.125,123 Z"
     id="path5" /></svg>