<?xml version="1.0" encoding="UTF-8" standalone="no"?>
<svg
   xmlns:dc="http://purl.org/dc/elements/1.1/"
   xmlns:cc="http://creativecommons.org/ns#"
   xmlns:rdf="http://www.w3.org/1999/02/22-rdf-syntax-ns#"
   xmlns:svg="http://www.w3.org/2000/svg"
   xmlns="http://www.w3.org/2000/svg"
   xmlns:xlink="http://www.w3.org/1999/xlink"
   xmlns:sodipodi="http://sodipodi.sourceforge.net/DTD/sodipodi-0.dtd"
   xmlns:inkscape="http://www.inkscape.org/namespaces/inkscape"
   width="500"
   height="500"
   id="svg2"
   version="1.1"
   inkscape:version="0.91 r13725"
   sodipodi:docname="Instagram_logo_2016.svg">
  <metadata
     id="metadata32">
    <rdf:RDF>
      <cc:Work
         rdf:about="">
        <dc:format>image/svg+xml</dc:format>
        <dc:type
           rdf:resource="http://purl.org/dc/dcmitype/StillImage" />
        <dc:title></dc:title>
      </cc:Work>
    </rdf:RDF>
  </metadata>
  <sodipodi:namedview
     pagecolor="#ffffff"
     bordercolor="#666666"
     borderopacity="1"
     objecttolerance="10"
     gridtolerance="10"
     guidetolerance="10"
     inkscape:pageopacity="0"
     inkscape:pageshadow="2"
     inkscape:window-width="1920"
     inkscape:window-height="1017"
     id="namedview30"
     showgrid="false"
     inkscape:zoom="0.63211061"
     inkscape:cx="261.93663"
     inkscape:cy="598.49062"
     inkscape:window-x="1912"
     inkscape:window-y="-8"
     inkscape:window-maximized="1"
     inkscape:current-layer="svg2" />
  <defs
     id="defs4">
    <linearGradient
       id="b">
      <stop
         offset="0"
         stop-color="#3771c8"
         id="stop7" />
      <stop
         stop-color="#3771c8"
         offset=".128"
         id="stop9" />
      <stop
         offset="1"
         stop-color="#60f"
         stop-opacity="0"
         id="stop11" />
    </linearGradient>
    <linearGradient
       id="a">
      <stop
         offset="0"
         stop-color="#fd5"
         id="stop14" />
      <stop
         offset=".1"
         stop-color="#fd5"
         id="stop16" />
      <stop
         offset=".5"
         stop-color="#ff543e"
         id="stop18" />
      <stop
         offset="1"
         stop-color="#c837ab"
         id="stop20" />
    </linearGradient>
    <radialGradient
       id="c"
       cx="158.429"
       cy="578.08801"
       r="65"
       xlink:href="#a"
       gradientUnits="userSpaceOnUse"
       gradientTransform="matrix(0,-7.6236451,7.09059,0,-3966.1721,1746.317)"
       fx="158.429"
       fy="578.08801" />
    <radialGradient
       id="d"
       cx="147.694"
       cy="473.45499"
       r="65"
       xlink:href="#b"
       gradientUnits="userSpaceOnUse"
       gradientTransform="matrix(0.66887425,3.3415135,-13.773564,2.758618,6338.6214,-1763.5838)"
       fx="147.694"
       fy="473.45499" />
  </defs>
  <path
     d="M 250.08162,0 C 145.70893,0 115.1839,0.1077 109.2504,0.60005 87.831349,2.38097 74.503086,5.75433 59.982739,12.98571 48.792535,18.54388 39.967271,24.98673 31.257371,34.01826 15.394969,50.48889 5.7813916,70.75214 2.3012768,94.83879 c -1.69198964,11.6933 -2.1842048,14.07812 -2.284186,73.80625 -0.03845431,19.90938 0,46.11159 0,81.25687 0,104.31652 0.11536293,134.81911 0.61526894,140.74268 1.73044396,20.84792 4.99906006,33.96442 11.92083526,48.31178 13.228283,27.46387 38.492762,48.08099 68.256397,55.77395 10.305755,2.65407 21.688228,4.11574 36.300868,4.8081 C 123.3016,499.80768 186.40513,500 249.5471,500 c 63.14198,0 126.28395,-0.0769 132.32128,-0.38465 16.91988,-0.79622 26.74495,-2.11556 37.6083,-4.92349 29.9559,-7.73142 54.75893,-28.04084 68.2564,-55.88935 6.78718,-14.00118 10.22884,-27.61772 11.78624,-47.37708 C 499.85772,387.11737 500,318.43079 500,249.83652 500,181.23072 499.84618,112.67107 499.50778,108.36302 497.93116,88.28439 494.4895,74.78325 487.48312,60.51281 481.7342,48.83105 475.35079,40.10724 466.0833,31.18725 449.5441,15.38592 429.31713,5.76972 405.21397,2.2925 393.5354,0.6039 391.20891,0.10385 331.45093,0 l -81.36931,0 z"
     id="path24"
     style="fill:url(#c)"
     inkscape:connector-curvature="0" />
  <path
     d="M 250.08162,0 C 145.70893,0 115.1839,0.1077 109.2504,0.60005 87.831349,2.38097 74.503086,5.75433 59.982739,12.98571 48.792535,18.54388 39.967271,24.98673 31.257371,34.01826 15.394969,50.48889 5.7813916,70.75214 2.3012768,94.83879 c -1.69198964,11.6933 -2.1842048,14.07812 -2.284186,73.80625 -0.03845431,19.90938 0,46.11159 0,81.25687 0,104.31652 0.11536293,134.81911 0.61526894,140.74268 1.73044396,20.84792 4.99906006,33.96442 11.92083526,48.31178 13.228283,27.46387 38.492762,48.08099 68.256397,55.77395 10.305755,2.65407 21.688228,4.11574 36.300868,4.8081 C 123.3016,499.80768 186.40513,500 249.5471,500 c 63.14198,0 126.28395,-0.0769 132.32128,-0.38465 16.91988,-0.79622 26.74495,-2.11556 37.6083,-4.92349 29.9559,-7.73142 54.75893,-28.04084 68.2564,-55.88935 6.78718,-14.00118 10.22884,-27.61772 11.78624,-47.37708 C 499.85772,387.11737 500,318.43079 500,249.83652 500,181.23072 499.84618,112.67107 499.50778,108.36302 497.93116,88.28439 494.4895,74.78325 487.48312,60.51281 481.7342,48.83105 475.35079,40.10724 466.0833,31.18725 449.5441,15.38592 429.31713,5.76972 405.21397,2.2925 393.5354,0.6039 391.20891,0.10385 331.45093,0 l -81.36931,0 z"
     id="path26"
     style="fill:url(#d)"
     inkscape:connector-curvature="0" />
  <path
     d="m 249.96625,65.39015 c -50.12903,0 -56.42016,0.21925 -76.10877,1.11548 -19.65015,0.90007 -33.06301,4.01188 -44.79927,8.57765 -12.14002,4.71578 -22.43809,11.02401 -32.697695,21.29026 -10.267301,10.26241 -16.573807,20.56328 -21.303687,32.70277 -4.576063,11.7433 -7.690862,25.16366 -8.575311,44.81148 -0.880604,19.69397 -1.11133,25.99066 -1.11133,76.13337 0,50.1427 0.223035,56.41631 1.115175,76.11028 0.903677,19.65551 4.01463,33.07203 8.575311,44.81149 4.718344,12.14333 11.024851,22.4442 21.288306,32.70661 10.255761,10.2701 20.553831,16.59371 32.686161,21.30949 11.74395,4.56578 25.16066,7.67758 44.80696,8.57765 19.68861,0.89623 25.97589,1.11548 76.10108,1.11548 50.13288,0 56.40478,-0.21925 76.09339,-1.11548 19.65015,-0.90007 33.07839,-4.01187 44.82234,-8.57765 12.13618,-4.71578 22.41885,-11.03939 32.67461,-21.30949 10.2673,-10.26241 16.57381,-20.56328 21.30369,-32.70277 4.53761,-11.7433 7.65241,-25.16367 8.57531,-44.81148 0.88445,-19.69398 1.11517,-25.97143 1.11517,-76.11413 0,-50.14271 -0.23072,-56.43555 -1.11517,-76.12952 -0.9229,-19.65551 -4.0377,-33.07203 -8.57531,-44.81149 -4.72988,-12.14333 -11.03639,-22.4442 -21.30369,-32.70661 C 393.26622,86.10344 382.99893,79.79521 370.84737,75.08328 359.08035,70.51751 345.6598,67.4057 326.00965,66.50563 306.32104,65.6094 300.05299,65.39015 249.90857,65.39015 Z m -16.55842,33.27204 c 4.91446,-0.008 10.39804,0 16.55842,0 49.28304,0 55.12425,0.17694 74.58598,1.06163 17.99662,0.82315 27.76401,3.8311 34.27048,6.35823 8.61377,3.34644 14.75492,7.34678 21.2114,13.80886 6.46031,6.46209 10.45955,12.61646 13.81277,21.23257 2.52645,6.50055 5.53742,16.27061 6.3565,34.27213 0.88445,19.46319 1.07672,25.30983 1.07672,74.58323 0,49.2734 -0.19227,55.12005 -1.07672,74.58324 -0.82293,18.00152 -3.83005,27.77158 -6.3565,34.27213 -3.34553,8.61611 -7.35246,14.75125 -13.81277,21.20949 -6.46033,6.46208 -12.59379,10.46242 -21.2114,13.80886 -6.49878,2.53867 -16.27386,5.53893 -34.27048,6.36207 -19.45788,0.88469 -25.30294,1.07702 -74.58598,1.07702 -49.28689,0 -55.12809,-0.19233 -74.58598,-1.07702 -17.99661,-0.83084 -27.76401,-3.83878 -34.27432,-6.36592 -8.61377,-3.34644 -14.76646,-7.34678 -21.22678,-13.80886 -6.46032,-6.46209 -10.45957,-12.60107 -13.81279,-21.22103 -2.52645,-6.50055 -5.53742,-16.2706 -6.356495,-34.27213 -0.884449,-19.46318 -1.061339,-25.30983 -1.061339,-74.614 0,-49.30418 0.17689,-55.12005 1.061339,-74.58324 0.822925,-18.00152 3.830045,-27.77158 6.356495,-34.27982 3.34553,-8.61611 7.35247,-14.77048 13.81279,-21.23257 6.46032,-6.46208 12.61301,-10.46242 21.22678,-13.81655 6.50647,-2.53868 16.27771,-5.53893 34.27432,-6.36592 17.02757,-0.7693 23.62633,-1.00009 58.02756,-1.03855 z m 115.08605,30.65644 c -12.22847,0 -22.14968,9.91238 -22.14968,22.14803 0,12.23181 9.92121,22.15572 22.14968,22.15572 12.22847,0 22.14969,-9.92391 22.14969,-22.15572 0,-12.2318 -9.92122,-22.15572 -22.14969,-22.15572 z m -98.52763,25.88681 c -52.34785,0 -94.78987,42.45359 -94.78987,94.81572 0,52.36212 42.44202,94.79648 94.78987,94.79648 52.34785,0 94.77449,-42.43436 94.77449,-94.79648 0,-52.36213 -42.43048,-94.81572 -94.77833,-94.81572 z m 0,33.27205 c 33.97823,0 61.5269,27.55233 61.5269,61.54367 0,33.98749 -27.54867,61.54366 -61.5269,61.54366 -33.98207,0 -61.52689,-27.55617 -61.52689,-61.54366 0,-33.99134 27.54482,-61.54367 61.52689,-61.54367 z"
     id="path28"
     inkscape:connector-curvature="0"
     style="fill:#ffffff" />
</svg>
