<?xml version="1.0" encoding="UTF-8" standalone="no"?>
<!-- Created with Inkscape (http://www.inkscape.org/) -->

<svg
   xmlns:dc="http://purl.org/dc/elements/1.1/"
   xmlns:cc="http://creativecommons.org/ns#"
   xmlns:rdf="http://www.w3.org/1999/02/22-rdf-syntax-ns#"
   xmlns:svg="http://www.w3.org/2000/svg"
   xmlns="http://www.w3.org/2000/svg"
   xmlns:sodipodi="http://sodipodi.sourceforge.net/DTD/sodipodi-0.dtd"
   xmlns:inkscape="http://www.inkscape.org/namespaces/inkscape"
   id="svg4136"
   version="1.1"
   inkscape:version="0.91 r13725"
   xml:space="preserve"
   width="500"
   height="500"
   viewBox="0 0 500 500.00001"
   sodipodi:docname="Social Icons - Facebook (Color).svg"><metadata
     id="metadata4142"><rdf:RDF><cc:Work
         rdf:about=""><dc:format>image/svg+xml</dc:format><dc:type
           rdf:resource="http://purl.org/dc/dcmitype/StillImage" /><dc:title /></cc:Work></rdf:RDF></metadata><defs
     id="defs4140"><clipPath
       clipPathUnits="userSpaceOnUse"
       id="clipPath4156"><path
         d="m 0.4898005,-0.0677476 0,1.0729951 1.992e-4,0 0,-1.0729951 -1.992e-4,0 z m -0.4798007,0 0,1.0729951 2.001e-4,0 0,-1.0729951 -2.001e-4,0 z m -0.0154,1.0434161 0,4.774e-4 0.5138003,0 0,-4.774e-4 -0.5138003,0 z m 0,-0.9489501 0,4.752e-4 0.5138003,0 0,-4.752e-4 -0.5138003,0 z m 0,0.9107822 0,4.774e-4 0.5138003,0 0,-4.774e-4 -0.5138003,0 z m 0.9955998,-1.0052482 0,1.0729951 2.002e-4,0 0,-1.0729951 -2.002e-4,0 z m -0.4797998,0 0,1.0729951 2.002e-4,0 0,-1.0729951 -2.002e-4,0 z m -0.0153999,1.0434161 0,4.774e-4 0.5138003,0 0,-4.774e-4 -0.5138003,0 z m 0,-0.9489501 0,4.752e-4 0.5138003,0 0,-4.752e-4 -0.5138003,0 z m 0,0.9107822 0,4.774e-4 0.5138003,0 0,-4.774e-4 -0.5138003,0 z"
         id="path4158"
         inkscape:connector-curvature="0" /></clipPath><clipPath
       clipPathUnits="userSpaceOnUse"
       id="clipPath4166"><path
         d="m 0.341103,0.2557224 c 0.006243,0 0.0112979,0.0120597 0.0112979,0.0269517 l 0,0.4346518 c 0,0.0148963 -0.005055,0.0269517 -0.0112979,0.0269517 l -0.1822054,0 c -0.006245,0 -0.0112944,-0.0120554 -0.0112944,-0.0269517 l 0,-0.4346518 c 0,-0.014892 0.005049,-0.0269517 0.0112944,-0.0269517 l 0.1822054,0 z"
         id="path4168"
         inkscape:connector-curvature="0" /></clipPath><clipPath
       clipPathUnits="userSpaceOnUse"
       id="clipPath4176"><path
         d="m 0.2889985,0.2557224 0,0.1894136 0.0265358,0 0.003986,0.0734844 -0.0305218,0 0,0.0471079 c 0,0.0213494 0.002397,0.0358968 0.0152315,0.0358968 l 0.0163685,-1.08e-5 0,0.0659803 c -0.002832,8.96e-4 -0.0125477,0.002725 -0.0238519,0.002725 -0.0235992,0 -0.0397437,-0.0341824 -0.0397437,-0.0972893 l 0,-0.0544096 -0.0268031,0 0,-0.0734844 0.0267968,0 0,-0.1894136 0.0320019,0 z"
         id="path4178"
         inkscape:connector-curvature="0" /></clipPath><clipPath
       clipPathUnits="userSpaceOnUse"
       id="clipPath4186"><path
         d="m 0.8411033,0.7442776 -0.1822063,0 c -0.006244,0 -0.0112934,-0.0120554 -0.0112934,-0.0269517 l 0,-0.4346518 c 0,-0.014892 0.005049,-0.0269517 0.0112934,-0.0269517 l 0.0980999,0 0,0.1894136 -0.0267977,0 0,0.0734844 0.0268041,0 0,0.0544096 c 0,0.0631069 0.0161445,0.0972893 0.0397436,0.0972893 0.0113034,0 0.0210192,-0.001829 0.023852,-0.002725 l 0,-0.0659803 -0.0163685,1.08e-5 c -0.012834,0 -0.0152315,-0.0145474 -0.0152315,-0.0358968 l 0,-0.0471079 0.0305209,0 -0.003985,-0.0734844 -0.0265358,0 0,-0.1894136 0.0521044,0 c 0.006242,0 0.0112971,0.0120597 0.0112971,0.0269517 l 0,0.4346518 c 0,0.0148963 -0.005055,0.0269517 -0.0112971,0.0269517 z"
         id="path4188"
         inkscape:connector-curvature="0" /></clipPath><clipPath
       clipPathUnits="userSpaceOnUse"
       id="clipPath4176-7"><path
         d="m 0.2889985,0.2557224 0,0.1894136 0.0265358,0 0.003986,0.0734844 -0.0305218,0 0,0.0471079 c 0,0.0213494 0.002397,0.0358968 0.0152315,0.0358968 l 0.0163685,-1.08e-5 0,0.0659803 c -0.002832,8.96e-4 -0.0125477,0.002725 -0.0238519,0.002725 -0.0235992,0 -0.0397437,-0.0341824 -0.0397437,-0.0972893 l 0,-0.0544096 -0.0268031,0 0,-0.0734844 0.0267968,0 0,-0.1894136 0.0320019,0 z"
         id="path4178-1"
         inkscape:connector-curvature="0" /></clipPath><clipPath
       clipPathUnits="userSpaceOnUse"
       id="clipPath4166-9"><path
         d="m 0.341103,0.2557224 c 0.006243,0 0.0112979,0.0120597 0.0112979,0.0269517 l 0,0.4346518 c 0,0.0148963 -0.005055,0.0269517 -0.0112979,0.0269517 l -0.1822054,0 c -0.006245,0 -0.0112944,-0.0120554 -0.0112944,-0.0269517 l 0,-0.4346518 c 0,-0.014892 0.005049,-0.0269517 0.0112944,-0.0269517 l 0.1822054,0 z"
         id="path4168-7"
         inkscape:connector-curvature="0" /></clipPath><clipPath
       id="clipPath4298"
       clipPathUnits="userSpaceOnUse"><path
         inkscape:connector-curvature="0"
         id="path4300"
         d="M 0,500 1024,500 1024,0 0,0 0,500 Z" /></clipPath><clipPath
       id="clipPath4310"
       clipPathUnits="userSpaceOnUse"><path
         inkscape:connector-curvature="0"
         id="path4312"
         d="M 0,500 1024,500 1024,0 0,0 0,500 Z" /></clipPath></defs><sodipodi:namedview
     pagecolor="#ffffff"
     bordercolor="#666666"
     borderopacity="1"
     objecttolerance="10"
     gridtolerance="10"
     guidetolerance="10"
     inkscape:pageopacity="1"
     inkscape:pageshadow="2"
     inkscape:window-width="1920"
     inkscape:window-height="1057"
     id="namedview4138"
     showgrid="false"
     inkscape:zoom="1.3269566"
     inkscape:cx="179.29354"
     inkscape:cy="166.4386"
     inkscape:window-x="-8"
     inkscape:window-y="-8"
     inkscape:window-maximized="1"
     inkscape:current-layer="g4144"
     fit-margin-top="0"
     fit-margin-left="0"
     fit-margin-right="0"
     fit-margin-bottom="0" /><g
     id="g4144"
     inkscape:groupmode="layer"
     inkscape:label="FB-fLogo-2016"
     transform="matrix(1.25,0,0,-1.25,0,500.00005)"
     style="display:inline"><path
       style="fill:#3b5998;fill-opacity:1"
       d="m 350,6e-5 c 27.6,1.494341e-6 50,22.4 50,50 l 0,300 c 0,27.6 -22.4,50 -50,50 l -300,0 0,-2e-5 c -27.6,0 -50,-22.4 -50,-50 l 0,-300 c 0,-27.6 22.4,-50.000002393689 50,-50 100,1.0369966e-5 200,1.4585721e-5 300,2e-5 z"
       id="path4154" /><path
       style="fill:#ffffff;fill-opacity:1"
       d="m 213.65313,4e-5 0,154.90156 -52.12813,0 0,60.36875 52.12813,0 0,44.51875 c 0,51.66376 31.55504,79.79688 77.64374,79.79688 22.07768,0 41.05091,-1.64375 46.57969,-2.37813 l 0,-53.99219 -31.96562,-0.0156 c -25.06464,0 -29.91876,-11.90946 -29.91876,-29.3875 l 0,-38.54219 59.77969,0 -7.78281,-60.36875 -51.99688,0 0,-154.90158"
       id="path5" /></g></svg>