<?xml version="1.0" encoding="UTF-8" standalone="no"?>
<svg
   xmlns:dc="http://purl.org/dc/elements/1.1/"
   xmlns:cc="http://creativecommons.org/ns#"
   xmlns:rdf="http://www.w3.org/1999/02/22-rdf-syntax-ns#"
   xmlns:svg="http://www.w3.org/2000/svg"
   xmlns="http://www.w3.org/2000/svg"
   xmlns:sodipodi="http://sodipodi.sourceforge.net/DTD/sodipodi-0.dtd"
   xmlns:inkscape="http://www.inkscape.org/namespaces/inkscape"
   width="500"
   height="500"
   id="svg2"
   version="1.1"
   inkscape:version="0.91 r13725"
   sodipodi:docname="Social Icons - Google Plus.svg">
  <metadata
     id="metadata41">
    <rdf:RDF>
      <cc:Work
         rdf:about="">
        <dc:format>image/svg+xml</dc:format>
        <dc:type
           rdf:resource="http://purl.org/dc/dcmitype/StillImage" />
        <dc:title />
      </cc:Work>
    </rdf:RDF>
  </metadata>
  <defs
     id="defs39" />
  <sodipodi:namedview
     pagecolor="#000000"
     bordercolor="#666666"
     borderopacity="1"
     objecttolerance="10"
     gridtolerance="10"
     guidetolerance="10"
     inkscape:pageopacity="0"
     inkscape:pageshadow="2"
     inkscape:window-width="1920"
     inkscape:window-height="1057"
     id="namedview37"
     showgrid="false"
     inkscape:zoom="0.74368605"
     inkscape:cx="177.55091"
     inkscape:cy="362.4677"
     inkscape:window-x="-8"
     inkscape:window-y="-8"
     inkscape:window-maximized="1"
     inkscape:current-layer="svg_1" />
  <g
     id="g4"
     transform="translate(0,387.804)">
    <title
       id="title6">background</title>
    <rect
       id="canvas_background"
       height="402"
       width="582"
       y="-1"
       x="-1"
       style="fill:none" />
  </g>
  <g
     id="svg_1"
     transform="translate(0,387.804)">
    <path
       style="fill:#ffffff"
       d="M 62.5 0 C 28 0 0 28 0 62.5 L 0 437.5 C 0 472 28 500 62.5 500 L 437.5 500 C 472 500 500 472 500 437.5 L 500 62.5 C 500 28 472 0 437.5 0 L 62.5 0 z M 174.08984 112.62305 C 206.69017 112.61448 237.96023 126.09825 262.79492 146.88281 C 251.57787 159.21621 240.1694 171.40928 227.97852 182.82227 C 203.90554 168.19677 174.92175 157.04653 146.78711 166.94531 C 101.4083 179.86658 73.929752 233.45064 90.722656 277.84375 C 104.62965 324.2083 161.01963 349.65074 205.2168 330.17383 C 228.10216 321.97928 243.18763 300.8652 249.80859 278.17578 C 223.58008 277.65323 197.35155 277.97641 171.12305 277.25195 C 171.05755 261.64667 170.98771 246.09942 171.05273 230.49414 C 214.79267 230.42884 258.60294 230.30145 302.4082 230.69336 C 305.09815 268.92867 299.45449 309.84324 274.59766 340.53125 C 240.56059 384.33649 177.67999 397.19849 126.52344 380.01367 C 72.231607 362.18163 32.746045 307.48819 33.927734 250.17383 C 31.237782 179.35031 93.273202 113.89798 164.16797 113.04883 C 166.42629 112.85622 168.68264 112.72694 170.93164 112.66602 C 171.98586 112.63745 173.03822 112.62332 174.08984 112.62305 z M 387.66406 191.14258 L 426.67578 191.14258 C 426.74708 204.19448 426.874 217.31731 426.94531 230.36328 C 439.99126 230.4939 453.10632 230.55967 466.1582 230.625 L 466.1582 269.70703 C 453.11225 269.77233 439.99724 269.84092 426.94531 269.90625 C 426.81473 283.02347 426.74708 296.06246 426.67578 309.17969 C 413.62981 309.11436 400.57633 309.17969 387.5957 309.17969 C 387.47092 296.06246 387.47034 283.0187 387.33398 269.9668 C 374.28802 269.83021 361.17298 269.76853 348.12109 269.69727 L 348.12109 230.61523 C 361.17298 230.54993 374.2227 230.48614 387.33398 230.35547 C 387.39948 217.31544 387.52769 204.19448 387.66406 191.14258 z "
       transform="translate(0,-387.804)"
       id="path5" />
    <g
       id="svg_3"
       transform="translate(-112.4356,9.2257431)"
       style="fill:#7affff;fill-opacity:1;stroke:none">
      <g
         id="svg_6"
         style="fill:#7affff;fill-opacity:1;stroke:none">
        <g
           id="g4223"
           style="fill:#7affff;fill-opacity:1;stroke:none" />
      </g>
    </g>
  </g>
  <g
     id="svg_9"
     transform="translate(0,387.804)" />
  <g
     id="svg_10"
     transform="translate(0,387.804)" />
  <g
     id="svg_11"
     transform="translate(0,387.804)" />
  <g
     id="svg_12"
     transform="translate(0,387.804)" />
  <g
     id="svg_13"
     transform="translate(0,387.804)" />
  <g
     id="svg_14"
     transform="translate(0,387.804)" />
  <g
     id="svg_15"
     transform="translate(0,387.804)" />
  <g
     id="svg_16"
     transform="translate(0,387.804)" />
  <g
     id="svg_17"
     transform="translate(0,387.804)" />
  <g
     id="svg_18"
     transform="translate(0,387.804)" />
  <g
     id="svg_19"
     transform="translate(0,387.804)" />
  <g
     id="svg_20"
     transform="translate(0,387.804)" />
  <g
     id="svg_21"
     transform="translate(0,387.804)" />
  <g
     id="svg_22"
     transform="translate(0,387.804)" />
  <g
     id="svg_23"
     transform="translate(0,387.804)" />
</svg>
