<?xml version="1.0" encoding="UTF-8" standalone="no"?>
<svg
   xmlns:dc="http://purl.org/dc/elements/1.1/"
   xmlns:cc="http://creativecommons.org/ns#"
   xmlns:rdf="http://www.w3.org/1999/02/22-rdf-syntax-ns#"
   xmlns:svg="http://www.w3.org/2000/svg"
   xmlns="http://www.w3.org/2000/svg"
   xmlns:sodipodi="http://sodipodi.sourceforge.net/DTD/sodipodi-0.dtd"
   xmlns:inkscape="http://www.inkscape.org/namespaces/inkscape"
   width="500"
   height="500"
   id="svg2"
   version="1.1"
   inkscape:version="0.91 r13725"
   sodipodi:docname="Social Icons - Google Plus (Color).svg">
  <metadata
     id="metadata41">
    <rdf:RDF>
      <cc:Work
         rdf:about="">
        <dc:format>image/svg+xml</dc:format>
        <dc:type
           rdf:resource="http://purl.org/dc/dcmitype/StillImage" />
        <dc:title></dc:title>
      </cc:Work>
    </rdf:RDF>
  </metadata>
  <defs
     id="defs39" />
  <sodipodi:namedview
     pagecolor="#ffffff"
     bordercolor="#666666"
     borderopacity="1"
     objecttolerance="10"
     gridtolerance="10"
     guidetolerance="10"
     inkscape:pageopacity="1"
     inkscape:pageshadow="2"
     inkscape:window-width="1920"
     inkscape:window-height="1057"
     id="namedview37"
     showgrid="false"
     inkscape:zoom="0.74368605"
     inkscape:cx="-23.474778"
     inkscape:cy="362.4677"
     inkscape:window-x="-8"
     inkscape:window-y="-8"
     inkscape:window-maximized="1"
     inkscape:current-layer="svg_1" />
  <g
     id="g4"
     transform="translate(0,387.804)">
    <title
       id="title6">background</title>
    <rect
       id="canvas_background"
       height="402"
       width="582"
       y="-1"
       x="-1"
       style="fill:none" />
  </g>
  <g
     id="svg_1"
     transform="translate(0,387.804)">
    <path
       style="fill:#de5246;fill-opacity:1"
       d="m 62.5,-387.804 c -34.5,0 -62.5,28 -62.5,62.5 l 0,375 c 0,34.5 28,62.5 62.5,62.5 l 375,0 c 34.5,0 62.5,-28 62.5,-62.5 l 0,-375 c 0,-34.5 -28,-62.5 -62.5,-62.5 l -375,0 z"
       id="path4159" />
    <path
       style="fill:#efefef;fill-opacity:1"
       d="m 174.08984,-275.18095 c 32.60033,-0.009 63.87039,13.4752 88.70508,34.25976 -11.21705,12.3334 -22.62552,24.52647 -34.8164,35.93946 -24.07298,-14.6255 -53.05677,-25.77574 -81.19141,-15.87696 -45.37881,12.92127 -72.857358,66.50533 -56.064454,110.89844 13.906994,46.36455 70.296974,71.80699 114.494144,52.33008 22.88536,-8.19455 37.97083,-29.30863 44.59179,-51.99805 -26.22851,-0.52255 -52.45704,-0.19937 -78.68554,-0.92383 -0.0655,-15.60528 -0.13534,-31.15253 -0.0703,-46.75781 43.73994,-0.0653 87.55021,-0.19269 131.35547,0.19922 2.68995,38.23531 -2.95371,79.14988 -27.81054,109.83789 C 240.56059,-3.46751 177.67999,9.39449 126.52344,-7.79033 72.231607,-25.62237 32.746045,-80.31581 33.927734,-137.63017 c -2.689952,-70.82352 59.345468,-136.27585 130.240236,-137.125 2.25832,-0.19261 4.51467,-0.32189 6.76367,-0.38281 1.05422,-0.0286 2.10658,-0.0427 3.1582,-0.043 z"
       id="path4157" />
    <path
       style="fill:#efefef;fill-opacity:1"
       d="m 387.66406,-196.66142 39.01172,0 c 0.0713,13.0519 0.19822,26.17473 0.26953,39.2207 13.04595,0.13062 26.16101,0.19639 39.21289,0.26172 l 0,39.08203 c -13.04595,0.0653 -26.16096,0.13389 -39.21289,0.19922 -0.13058,13.11722 -0.19823,26.15621 -0.26953,39.27344 -13.04597,-0.06533 -26.09945,0 -39.08008,0 -0.12478,-13.11723 -0.12536,-26.16099 -0.26172,-39.21289 -13.04596,-0.13659 -26.161,-0.19827 -39.21289,-0.26953 l 0,-39.08204 c 13.05189,-0.0653 26.10161,-0.12909 39.21289,-0.25976 0.0655,-13.04003 0.19371,-26.16099 0.33008,-39.21289 z"
       id="path5" />
    <g
       id="svg_3"
       transform="translate(-112.4356,9.2257431)"
       style="fill:#7affff;fill-opacity:1;stroke:none">
      <g
         id="svg_6"
         style="fill:#7affff;fill-opacity:1;stroke:none">
        <g
           id="g4223"
           style="fill:#7affff;fill-opacity:1;stroke:none" />
      </g>
    </g>
  </g>
  <g
     id="svg_9"
     transform="translate(0,387.804)" />
  <g
     id="svg_10"
     transform="translate(0,387.804)" />
  <g
     id="svg_11"
     transform="translate(0,387.804)" />
  <g
     id="svg_12"
     transform="translate(0,387.804)" />
  <g
     id="svg_13"
     transform="translate(0,387.804)" />
  <g
     id="svg_14"
     transform="translate(0,387.804)" />
  <g
     id="svg_15"
     transform="translate(0,387.804)" />
  <g
     id="svg_16"
     transform="translate(0,387.804)" />
  <g
     id="svg_17"
     transform="translate(0,387.804)" />
  <g
     id="svg_18"
     transform="translate(0,387.804)" />
  <g
     id="svg_19"
     transform="translate(0,387.804)" />
  <g
     id="svg_20"
     transform="translate(0,387.804)" />
  <g
     id="svg_21"
     transform="translate(0,387.804)" />
  <g
     id="svg_22"
     transform="translate(0,387.804)" />
  <g
     id="svg_23"
     transform="translate(0,387.804)" />
</svg>
