<?xml version="1.0" encoding="UTF-8" standalone="no"?>
<!-- Generator: Adobe Illustrator 20.0.0, SVG Export Plug-In . SVG Version: 6.00 Build 0)  -->

<svg
   xmlns:dc="http://purl.org/dc/elements/1.1/"
   xmlns:cc="http://creativecommons.org/ns#"
   xmlns:rdf="http://www.w3.org/1999/02/22-rdf-syntax-ns#"
   xmlns:svg="http://www.w3.org/2000/svg"
   xmlns="http://www.w3.org/2000/svg"
   xmlns:sodipodi="http://sodipodi.sourceforge.net/DTD/sodipodi-0.dtd"
   xmlns:inkscape="http://www.inkscape.org/namespaces/inkscape"
   version="1.1"
   id="White"
   x="0px"
   y="0px"
   viewBox="0 0 500 500"
   xml:space="preserve"
   inkscape:version="0.91 r13725"
   sodipodi:docname="Social Icons - Twitter.svg"
   width="500"
   height="500"><metadata
     id="metadata11"><rdf:RDF><cc:Work
         rdf:about=""><dc:format>image/svg+xml</dc:format><dc:type
           rdf:resource="http://purl.org/dc/dcmitype/StillImage" /><dc:title /></cc:Work></rdf:RDF></metadata><defs
     id="defs9" /><sodipodi:namedview
     pagecolor="#000000"
     bordercolor="#666666"
     borderopacity="1"
     objecttolerance="10"
     gridtolerance="10"
     guidetolerance="10"
     inkscape:pageopacity="0"
     inkscape:pageshadow="2"
     inkscape:window-width="1920"
     inkscape:window-height="1057"
     id="namedview7"
     showgrid="false"
     inkscape:zoom="0.59"
     inkscape:cx="-53.389831"
     inkscape:cy="200"
     inkscape:window-x="-8"
     inkscape:window-y="-8"
     inkscape:window-maximized="1"
     inkscape:current-layer="White" /><style
     type="text/css"
     id="style3">
	.st0{fill:#FFFFFF;}
</style><path
     style="fill:#ffffff"
     d="M 62.5 0 C 28 0 0 28 0 62.5 L 0 437.5 C 0 472 28 500 62.5 500 L 437.5 500 C 472 500 500 472 500 437.5 L 500 62.5 C 500 28 472 0 437.5 0 L 62.5 0 z M 310.125 123 C 328.5 123 345.125 130.75 356.875 143.25 C 371.5 140.375 385.25 135.125 397.625 127.75 C 392.75 142.75 382.625 155.375 369.375 163.25 C 382.375 161.625 394.75 158.25 406.25 153.125 C 397.625 166 386.75 177.375 374.25 186.375 C 374.375 189.125 374.375 191.875 374.375 194.625 C 374.375 279.25 309.875 377 192 377 C 155.875 377 122.125 366.37306 93.875 348.37305 C 98.875 348.99805 104.00195 349.25 109.12695 349.25 C 139.12694 349.25 166.75 339 188.75 321.75 C 160.75 321.25 137 302.75 128.875 277.25 C 132.75 278 136.74805 278.37305 140.87305 278.37305 C 146.74805 278.37305 152.37305 277.625 157.74805 276.125 C 128.49806 270.25 106.375 244.25 106.375 213.25 L 106.375 212.375 C 115 217.125 124.87501 220 135.375 220.375 C 118.25001 208.875 106.875 189.25 106.875 167 C 106.875 155.25 110 144.25 115.5 134.75 C 147.125 173.5 194.375 199.125 247.625 201.75 C 246.625 197 246 192.125 246 187.125 C 246 151.75 274.75 123 310.125 123 z "
     id="path5" /></svg>