<svg version="1" xmlns="http://www.w3.org/2000/svg" width="666.667" height="666.667" viewBox="0 0 500.000000 500.000000"><path d="M205.2 48.6c-29.8 4.5-43.4 10.9-70.3 32.5-10.6 8.6-17.1 15.4-20.1 21.2-2.3 4.6-6.6 6.7-13.9 6.7-7.8 0-13.7-4.9-20.9-17.5-5.1-9-6.1-10.2-9.4-11.5-6.8-2.6-14.8.6-21.5 8.6-16.2 19.3-25.2 46.9-23.7 72.9.3 5.5.8 11.1 1.1 12.5.3 1.4.8 3.8 1.1 5.5.8 4.5 6.2 13 12.2 19 7 7.1 21.1 14.9 51.4 28.5 13 5.8 14.7 7 20.5 15 6.1 8.2 7.7 12.1 12.8 30 5.3 18.9 6.3 22.3 14.6 49.5 13.4 43.9 23.6 71 34.6 92.3 12.1 23.2 24 33.6 43.2 37.5 10.5 2.2 52.3 2.3 64.4.2 18.8-3.3 30.8-12.4 41.6-31.5 3-5.3 13.1-25.8 13.1-26.6 0-.2 1.1-2.7 2.4-5.6 6.6-14.5 19.9-53.2 32.1-93.3 15.5-51 15.8-51.8 23-58.8 2.1-2.1 7.9-5.4 14.3-8.2 12.6-5.6 38.9-18.6 44.1-22 6.1-3.8 15.2-13.8 18.4-20 2.5-5.2 3.9-13.5 4.2-26.5.3-11.4-.1-15.2-3-29.5-2.1-10.7-5.8-19-13.7-31.2-12.5-19.3-24.4-24.4-33.3-14.1-1.9 2.3-3.5 4.6-3.5 5 0 1.2-6.2 10.7-8.6 13.3-4.7 5.1-7.6 6.5-13.1 6.5-7.7 0-11.7-2-14.4-7.2-4.2-8.3-25.4-26.8-43-37.5-5.9-3.7-8.4-4.9-16.4-8.3-5.9-2.5-18.8-5.6-27-6.6-2.2-.3-5.1-.8-6.5-1.1-5.2-1.3-78.2-1.1-86.8.3zm-18.4 182.1c7.3 5.5 8.1 17.5 1.6 24-2 2-7.9 4.3-11.1 4.3-3.7 0-10.4-3.5-12.7-6.7-2.8-3.9-3.2-11.9-.8-16.3 4.6-8.4 15.5-10.9 23-5.3zm144.3-.2c7.9 5.1 9.2 17.4 2.5 24.1-9.4 9.3-26.6 2.2-26.6-11.1 0-7.1 4-12.7 10.6-15 4.7-1.6 8.9-1 13.5 2z"/></svg>