<?xml version="1.0" encoding="UTF-8" standalone="no"?>
<svg
   xmlns:dc="http://purl.org/dc/elements/1.1/"
   xmlns:cc="http://creativecommons.org/ns#"
   xmlns:rdf="http://www.w3.org/1999/02/22-rdf-syntax-ns#"
   xmlns:svg="http://www.w3.org/2000/svg"
   xmlns="http://www.w3.org/2000/svg"
   xmlns:xlink="http://www.w3.org/1999/xlink"
   xmlns:sodipodi="http://sodipodi.sourceforge.net/DTD/sodipodi-0.dtd"
   xmlns:inkscape="http://www.inkscape.org/namespaces/inkscape"
   width="500"
   height="500"
   id="svg2"
   version="1.1"
   inkscape:version="0.91 r13725"
   sodipodi:docname="Social Icons - Instagram.svg">
  <metadata
     id="metadata32">
    <rdf:RDF>
      <cc:Work
         rdf:about="">
        <dc:format>image/svg+xml</dc:format>
        <dc:type
           rdf:resource="http://purl.org/dc/dcmitype/StillImage" />
        <dc:title />
      </cc:Work>
    </rdf:RDF>
  </metadata>
  <sodipodi:namedview
     pagecolor="#000000"
     bordercolor="#666666"
     borderopacity="1"
     objecttolerance="10"
     gridtolerance="10"
     guidetolerance="10"
     inkscape:pageopacity="1"
     inkscape:pageshadow="2"
     inkscape:window-width="1920"
     inkscape:window-height="1057"
     id="namedview30"
     showgrid="false"
     inkscape:zoom="0.8939394"
     inkscape:cx="215.80294"
     inkscape:cy="310.59063"
     inkscape:window-x="-8"
     inkscape:window-y="-8"
     inkscape:window-maximized="1"
     inkscape:current-layer="svg2" />
  <defs
     id="defs4">
    <linearGradient
       id="b">
      <stop
         offset="0"
         stop-color="#3771c8"
         id="stop7" />
      <stop
         stop-color="#3771c8"
         offset=".128"
         id="stop9" />
      <stop
         offset="1"
         stop-color="#60f"
         stop-opacity="0"
         id="stop11" />
    </linearGradient>
    <linearGradient
       id="a">
      <stop
         offset="0"
         stop-color="#fd5"
         id="stop14" />
      <stop
         offset=".1"
         stop-color="#fd5"
         id="stop16" />
      <stop
         offset=".5"
         stop-color="#ff543e"
         id="stop18" />
      <stop
         offset="1"
         stop-color="#c837ab"
         id="stop20" />
    </linearGradient>
    <radialGradient
       id="c"
       cx="158.429"
       cy="578.08801"
       r="65"
       xlink:href="#a"
       gradientUnits="userSpaceOnUse"
       gradientTransform="matrix(0,-1.98198,1.8439,0,-1031.402,454.004)"
       fx="158.429"
       fy="578.08801" />
    <radialGradient
       id="d"
       cx="147.694"
       cy="473.45499"
       r="65"
       xlink:href="#b"
       gradientUnits="userSpaceOnUse"
       gradientTransform="matrix(0.17394,0.86872,-3.5818,0.71718,1648.348,-458.493)"
       fx="147.694"
       fy="473.45499" />
  </defs>
  <path
     style="fill:#ffffff"
     d="M 62.5 0 C 28 0 0 28 0 62.5 L 0 437.5 C 0 472 28 500 62.5 500 L 437.5 500 C 472 500 500 472 500 437.5 L 500 62.5 C 500 28 472 0 437.5 0 L 62.5 0 z M 249.94727 68.195312 L 250.00781 68.195312 C 299.31786 68.195572 305.53052 68.407033 324.91211 69.289062 C 344.26759 70.175403 357.48757 73.242201 369.07812 77.738281 C 381.04746 82.378301 391.1601 88.589785 401.27344 98.703125 C 411.38678 108.80888 417.59496 118.95608 422.25391 130.91406 C 426.72348 142.47432 429.79406 155.68162 430.70312 175.03711 C 431.5743 194.43048 431.79883 200.63048 431.79883 250.00781 C 431.79883 299.38513 431.5743 305.56367 430.70312 324.95703 C 429.79406 344.30494 426.72348 357.52189 422.25391 369.08594 C 417.59496 381.04014 411.38678 391.18331 401.27344 401.28906 C 391.17147 411.40239 381.04015 417.63351 369.08594 422.27734 C 357.5181 426.77342 344.28908 429.83827 324.93359 430.72461 C 305.54022 431.60716 299.36549 431.82031 249.98438 431.82031 C 200.61084 431.82031 194.41484 431.60701 175.02148 430.72461 C 155.66978 429.83827 142.46042 426.77342 130.89258 422.27734 C 118.94218 417.63351 108.79924 411.40239 98.697266 401.28906 C 88.587717 391.18331 82.370246 381.04393 77.722656 369.08594 C 73.230365 357.52568 70.165516 344.31252 69.275391 324.95703 C 68.396633 305.56367 68.179688 299.38513 68.179688 250.00781 C 68.179688 200.63048 68.407992 194.43048 69.275391 175.03711 C 70.146581 155.6892 73.215214 142.47225 77.722656 130.9082 C 82.381609 118.95401 88.589788 108.80888 98.703125 98.703125 C 108.80888 88.593575 118.95608 82.382091 130.91406 77.738281 C 142.47433 73.242201 155.68749 70.175402 175.04297 69.289062 C 194.42456 68.407043 200.65232 68.195572 249.94727 68.195312 z M 233.69531 100.91602 C 199.80995 100.95392 193.30934 101.17994 176.53711 101.9375 C 158.81036 102.75187 149.19016 105.7032 142.78125 108.20312 C 134.29666 111.50606 128.23845 115.44514 121.875 121.80859 C 115.51155 128.17204 111.55708 134.23807 108.26172 142.72266 C 105.77316 149.13156 102.81449 158.75177 102.00391 176.47852 C 101.13272 195.64462 100.96094 201.36638 100.96094 249.91797 C 100.96094 298.46956 101.13272 304.22843 102.00391 323.39453 C 102.8107 341.12127 105.77316 350.7432 108.26172 357.14453 C 111.56465 365.63292 115.51155 371.68147 121.875 378.04492 C 128.23845 384.40836 134.29666 388.34722 142.78125 391.64258 C 149.19394 394.13114 158.81036 397.09004 176.53711 397.9082 C 195.7032 398.77938 201.46001 398.96484 250.00781 398.96484 C 298.55183 398.96484 304.31046 398.77934 323.47656 397.9082 C 341.20331 397.09761 350.83304 394.1425 357.23438 391.64258 C 365.72276 388.34722 371.76155 384.40836 378.125 378.04492 C 384.48846 371.68526 388.43511 365.64476 391.73047 357.16016 C 394.21903 350.75884 397.1777 341.13691 397.98828 323.41016 C 398.85947 304.24406 399.05469 298.48418 399.05469 249.96289 C 399.05469 201.4416 398.85947 195.68954 397.98828 176.52344 C 397.18149 158.79669 394.21903 149.17477 391.73047 142.77344 C 388.42754 134.28884 384.48846 128.23064 378.125 121.86719 C 371.76534 115.50375 365.71897 111.55707 357.23438 108.26172 C 350.82547 105.77315 341.20331 102.8145 323.47656 102.00391 C 304.30667 101.13273 298.55183 100.96094 250.00781 100.96094 C 243.93981 100.96094 238.53608 100.95294 233.69531 100.96094 L 233.69531 100.91602 z M 347.06055 131.13672 C 359.10565 131.13671 368.87891 140.91584 368.87891 152.96094 C 368.87891 165.00604 359.10565 174.77734 347.06055 174.77734 C 335.01545 174.77734 325.23828 165.00604 325.23828 152.96094 C 325.23828 140.91206 335.01545 131.14453 347.06055 131.14453 L 347.06055 131.13672 z M 250.00781 156.63672 C 301.57068 156.63672 343.36328 198.44494 343.36328 250.00781 C 343.36328 301.57068 301.57068 343.35547 250.00781 343.35547 C 198.44494 343.35547 156.63672 301.57068 156.63672 250.00781 C 156.63672 198.44494 198.44494 156.63672 250.00781 156.63672 z M 250.00781 189.40234 C 216.53532 189.40234 189.40234 216.53531 189.40234 250.00781 C 189.40234 283.47651 216.53532 310.61133 250.00781 310.61133 C 283.47652 310.61133 310.61133 283.47651 310.61133 250.00781 C 310.61133 216.53531 283.47652 189.40234 250.00781 189.40234 z "
     id="path5" />
</svg>
