<?xml version="1.0" encoding="UTF-8" standalone="no"?>
<!-- Created with Inkscape (http://www.inkscape.org/) -->

<svg
   xmlns:dc="http://purl.org/dc/elements/1.1/"
   xmlns:cc="http://creativecommons.org/ns#"
   xmlns:rdf="http://www.w3.org/1999/02/22-rdf-syntax-ns#"
   xmlns:svg="http://www.w3.org/2000/svg"
   xmlns="http://www.w3.org/2000/svg"
   xmlns:sodipodi="http://sodipodi.sourceforge.net/DTD/sodipodi-0.dtd"
   xmlns:inkscape="http://www.inkscape.org/namespaces/inkscape"
   width="874.74908"
   height="582.20209"
   viewBox="0 0 874.74908 582.20209"
   id="svg2"
   version="1.1"
   inkscape:version="0.91 r13725"
   sodipodi:docname="logo.svg">
  <defs
     id="defs4" />
  <sodipodi:namedview
     id="base"
     pagecolor="#d2d2d2"
     bordercolor="#666666"
     borderopacity="1.0"
     inkscape:pageopacity="0"
     inkscape:pageshadow="2"
     inkscape:zoom="0.70710678"
     inkscape:cx="679.9617"
     inkscape:cy="302.75086"
     inkscape:document-units="px"
     inkscape:current-layer="layer1"
     showgrid="false"
     units="px"
     inkscape:window-width="1920"
     inkscape:window-height="1018"
     inkscape:window-x="1912"
     inkscape:window-y="-8"
     inkscape:window-maximized="1"
     fit-margin-top="0"
     fit-margin-left="0"
     fit-margin-right="0"
     fit-margin-bottom="0" />
  <metadata
     id="metadata7">
    <rdf:RDF>
      <cc:Work
         rdf:about="">
        <dc:format>image/svg+xml</dc:format>
        <dc:type
           rdf:resource="http://purl.org/dc/dcmitype/StillImage" />
        <dc:title></dc:title>
      </cc:Work>
    </rdf:RDF>
  </metadata>
  <g
     inkscape:label="Buffalo Outline"
     inkscape:groupmode="layer"
     id="layer1"
     transform="translate(-67.858066,-228.14669)">
    <g
       id="g3347"
       transform="translate(-2.8571443,14.28571)" />
    <path
       style="fill:#000000;fill-opacity:1;fill-rule:evenodd;stroke:#ffffff;stroke-width:7;stroke-linecap:butt;stroke-linejoin:miter;stroke-miterlimit:4;stroke-dasharray:none;stroke-opacity:1"
       d="m 609.46429,231.82644 c 28.57465,1.99482 48.21428,16.07143 75,35.89286 32.88863,24.33758 60.53571,62.67857 73.39285,79.10715 12.85714,16.42857 27.50001,32.14286 37.14286,42.67857 8.85304,9.67277 30.17857,20.17857 51.60714,21.60714 21.42857,1.42857 28.92857,9.28571 35.35714,12.85714 6.42858,3.57143 12.32144,4.10715 18.75001,4.10715 6.42857,0 6.96428,1.42856 9.64285,-6.60715 1.82108,-5.46324 3.35408,-9.27608 8.39287,-8.92857 5.17857,0.35715 11.7857,14.64286 14.64284,23.92857 2.85714,9.28571 5.71429,21.96429 5.71429,46.07143 0,24.3277 -7.93089,60.73229 -11.96428,81.25 -4.10714,20.89286 -10,37.14286 -10.71429,50.71429 -0.71428,13.57143 -2.85714,60 -2.85714,75 0,15 -2.14286,24.10714 -7.14286,27.67857 -5,3.57143 -15.71428,6.07143 -19.28571,6.07143 -3.57143,0 -16.60715,-1.78572 -20,-0.17857 -3.22763,1.52888 -6.28508,10.03509 -10.35714,14.10714 -3.57144,3.57143 -11.78571,7.67857 -17.67858,8.21428 -5.86596,0.53327 -21.42857,-2.14285 -30,-7.85714 -8.57142,-5.71428 -18.9296,-12.74817 -22.85714,-13.57143 -3.67249,-0.7698 -21.07142,-6.42857 -25.35714,0.71429 -4.28571,7.14285 -10.35715,16.78571 -10.89286,56.96428 -0.10475,7.85645 -0.17857,23.125 -2.32142,23.21429 -2.14286,0.0893 -50.53615,0.73569 -68.75001,0.35714 -17.51085,-0.36394 -53.00425,-1.0694 -58.57143,-1.42857 -5.53571,-0.35714 -17.03708,-0.35069 -20.35714,-8.57143 -1.59957,-3.96067 -2.32143,-8.75 -2.32143,-8.75 0,0 -38.21429,1.60715 -58.92857,0.89286 -20.71429,-0.71428 -42.14286,-3.92857 -46.07143,-4.46429 -3.16509,-0.43161 -14.82142,-3.57142 -14.82142,-7.14285 l -10e-6,-44.72426 c 0,0 -24.28571,-5.09717 -38.57143,-10.09717 -14.28571,-5 -27.32142,-11.96429 -35.89285,-12.67857 -8.57143,-0.71429 -22.67858,0.71428 -22.67858,0.71428 0,0 -1.96428,31.42858 -1.96428,47.85715 0,16.42857 -1.60714,49.10714 -1.60714,49.10714 0,0 -49.28572,1.42857 -78.57143,0.71428 -29.28572,-0.71428 -78.42857,-2.28571 -87,-6.57142 -8.57143,-4.28572 -8,-14.71429 -10.14286,-16.85715 -2.14286,-2.14285 -12.96428,-1.85714 -12.96428,-1.85714 0,0 -16.50001,0.46429 -28.64286,0.46429 -12.14286,0 -37.5,-0.71428 -37.5,-0.71428 0,0 1.25,-50.71429 1.96429,-70.71429 0.71428,-20 1.60713,-46.78572 -0.53572,-56.07143 -2.14286,-9.28572 -12.32143,-32.67858 -22.32143,-45.53572 C 91.428572,595.93359 70,560.75502 71.428571,529.32645 c 1.428572,-31.42857 10.064239,-50.86868 19.82143,-66.60715 10.883159,-17.55466 15.917229,-27.11221 41.788949,-54.49874 16.92506,-17.91603 38.4964,-32.14166 55.9964,-42.76666 13.39069,-8.13006 36.40817,-10.77717 103.64322,-28.27031 48.67677,-12.66467 84.46429,-17.32144 105.17857,-22.32144 20.71429,-5 39.21623,-14.35028 57.5,-24.82142 33.99279,-19.46771 50.99656,-27.52392 66.78572,-34.82143 21.25,-9.82142 58.74677,-25.38768 87.32143,-23.39286 z"
       id="path3365"
       inkscape:connector-curvature="0"
       sodipodi:nodetypes="zsssssssssssssssssssssszssscssscsscscssscscsssssssssssz" />
    <path
       style="fill:#ffffff;stroke:#ffffff;stroke-width:1.01015258"
       d=""
       id="path3369"
       inkscape:connector-curvature="0"
       transform="translate(0,52.362161)" />
    <path
       style="fill:#ffffff;stroke:#ffffff;stroke-width:1.01015258"
       d=""
       id="path3371"
       inkscape:connector-curvature="0"
       transform="translate(0,52.362161)" />
    <path
       style="fill:none;fill-rule:evenodd;stroke:#ffffff;stroke-width:7;stroke-linecap:butt;stroke-linejoin:miter;stroke-miterlimit:4;stroke-dasharray:none;stroke-opacity:1"
       d="m 202.51777,785.26381 c 0,0 -7.70561,-26.32837 -11.18046,-40.68718 -1.96967,-8.13909 -8.01557,-27.21637 -13.77513,-45.01383 C 175.66038,693.68612 159.75,657.73716 159.75,657.73716"
       id="path4178"
       inkscape:connector-curvature="0"
       sodipodi:nodetypes="cssc" />
  </g>
  <g
     inkscape:groupmode="layer"
     id="layer4"
     inkscape:label="Text"
     transform="translate(-67.858066,-175.78453)">
    <g
       transform="matrix(1.0076445,0,0,0.99241348,0,24)"
       style="font-style:normal;font-weight:normal;font-size:165.94126892px;line-height:125%;font-family:sans-serif;letter-spacing:0px;word-spacing:0px;display:inline;fill:#ffffff;fill-opacity:1;stroke:none;stroke-width:1px;stroke-linecap:butt;stroke-linejoin:miter;stroke-opacity:1"
       id="text4182">
      <path
         d="m 187.17071,437.18829 q -1.05334,-17.25854 -2.43078,-27.62987 9.07491,4.0513 16.12418,5.67182 7.13028,1.53949 12.478,1.53949 7.04926,0 11.18159,-2.02565 4.21335,-2.10668 4.21335,-6.15798 0,-1.37744 -0.40513,-2.59283 -0.40513,-1.29641 -1.53949,-2.83591 -1.13437,-1.62052 -3.24104,-3.48412 L 208.3185,386.38498 q -5.34772,-4.53746 -7.45439,-6.56311 -4.29438,-4.13233 -6.72516,-7.69747 -2.34976,-3.56515 -3.48412,-7.21132 -1.05334,-3.72719 -1.05334,-7.85952 0,-4.94259 1.70155,-9.64209 1.78257,-4.78054 5.26669,-8.91287 3.48412,-4.13232 9.23696,-7.13028 5.75285,-2.99797 12.31596,-4.0513 6.5631,-1.13437 13.53134,-1.13437 13.69339,0 29.81757,3.16002 0.24308,5.59079 0.56718,10.2903 0.32411,4.61848 1.5395,16.28623 -7.4544,-2.99797 -13.61237,-4.13233 -6.15798,-1.21539 -10.61441,-1.21539 -6.32003,0 -10.53338,2.34975 -4.13233,2.34976 -4.13233,5.83388 0,1.62052 0.64821,3.16001 0.64821,1.5395 2.43078,3.64617 1.78257,2.02565 4.69951,4.53746 2.91694,2.43078 9.15594,7.29234 l 5.83387,4.61848 q 2.59283,2.10668 5.5908,5.10464 2.99796,2.99796 5.18566,5.9149 2.1877,2.91694 3.32207,5.34772 1.21539,2.43078 1.78257,4.94258 0.56718,2.43078 0.56718,5.26669 0,7.29234 -3.48412,13.93648 -3.48412,6.5631 -9.88517,10.85748 -6.40106,4.21336 -14.09853,5.9149 -7.61644,1.70155 -16.12417,1.70155 -13.12622,0 -33.13964,-3.80822 z"
         style="font-style:normal;font-variant:normal;font-weight:normal;font-stretch:normal;font-size:165.94126892px;line-height:125%;font-family:'Eras Bold ITC';-inkscape-font-specification:'Eras Bold ITC, Normal';text-align:start;writing-mode:lr-tb;text-anchor:start;fill:#ffffff;fill-opacity:1"
         id="path4220"
         inkscape:connector-curvature="0" />
      <path
         d="m 304.49637,438.88983 q 4.0513,-39.37864 4.86156,-86.69783 l -34.51708,0.89129 0.40513,-8.99389 q 0.32411,-7.21132 0.48616,-15.80007 23.01139,0.16205 53.63922,0.16205 l 20.01342,-0.081 19.44624,0 10.53339,-0.081 -0.48616,7.85952 q -0.3241,6.32003 -0.48616,10.45236 -0.081,4.13232 -0.081,6.239 Q 360.97152,352.03 349.70891,352.03 l -5.67183,0 q -1.21539,14.3416 -1.86359,26.4955 -0.89129,17.4206 -1.37745,33.86888 -0.48615,16.36725 -0.48615,26.4955 -13.28827,-0.16205 -17.17752,-0.16205 -3.48411,0 -18.63598,0.16205 z"
         style="font-style:normal;font-variant:normal;font-weight:normal;font-stretch:normal;font-size:165.94126892px;line-height:125%;font-family:'Eras Bold ITC';-inkscape-font-specification:'Eras Bold ITC, Normal';text-align:start;writing-mode:lr-tb;text-anchor:start;fill:#ffffff;fill-opacity:1"
         id="path4222"
         inkscape:connector-curvature="0" />
      <path
         d="m 390.05985,328.28933 q 12.64006,0.16205 17.82572,0.16205 6.48208,0 17.25854,-0.16205 l -2.43078,34.43605 q -0.72923,9.72312 -1.13436,18.23085 -0.32411,8.50774 -0.32411,11.74878 0,6.15797 0.89129,10.2903 0.89129,4.13233 3.24104,7.04926 2.34975,2.83591 6.48208,4.29438 4.21335,1.45847 8.75081,1.45847 3.88925,0 7.29234,-0.89129 2.67386,-0.72923 4.78054,-2.02565 1.86359,-1.21539 3.24104,-2.83591 1.70154,-1.94462 2.99796,-4.86156 1.29641,-2.75488 1.94462,-7.13029 0.72924,-4.45643 1.94463,-20.2565 1.05333,-13.45032 1.62052,-24.63191 0.48615,-10.85748 0.89128,-24.87498 12.23493,0.16205 19.28419,0.16205 l 16.44828,-0.16205 -3.97027,57.52846 q -0.081,1.62053 -0.081,2.67386 -0.3241,16.85341 -2.10667,23.82165 -1.70155,6.88721 -5.75285,11.99185 -4.0513,5.10464 -11.8298,9.23696 -7.77849,4.05131 -17.66367,5.75285 -9.88517,1.70155 -20.01342,1.70155 -9.07492,0 -17.50162,-1.29642 -7.7785,-1.29641 -14.0175,-3.72719 -6.239,-2.51181 -10.85749,-5.83388 -4.21335,-3.07899 -6.48208,-6.239 -2.26872,-3.24104 -3.56514,-7.69747 -1.45847,-5.02361 -1.45847,-10.77646 0,-1.94462 0.16205,-5.83387 0.16206,-3.97028 0.72924,-11.34364 l 1.05334,-12.96417 q 0.40513,-5.10464 0.89128,-14.98981 l 1.45847,-32.00527 z"
         style="font-style:normal;font-variant:normal;font-weight:normal;font-stretch:normal;font-size:165.94126892px;line-height:125%;font-family:'Eras Bold ITC';-inkscape-font-specification:'Eras Bold ITC, Normal';text-align:start;writing-mode:lr-tb;text-anchor:start;fill:#ffffff;fill-opacity:1"
         id="path4224"
         inkscape:connector-curvature="0" />
      <path
         d="m 514.35375,438.88983 q 1.78257,-18.47393 2.43078,-29.57449 0.97231,-16.52931 1.94462,-42.78174 0.72924,-20.09445 0.72924,-28.76423 l 0,-9.48004 q 9.48004,0.24308 16.36725,0.24308 6.64413,0 17.42059,-0.32411 10.77646,-0.40513 20.25651,-0.40513 10.85748,0 19.04111,1.29642 8.18363,1.29641 15.23289,5.34771 7.13029,4.0513 11.91082,10.61441 4.78054,6.56311 7.29234,15.39494 2.51181,8.75081 2.51181,18.0688 0,9.15594 -1.94462,17.66367 -1.94463,8.42671 -5.42875,15.23289 -3.48412,6.80619 -8.18362,11.74878 -4.61849,4.86156 -10.61441,8.34567 -4.45643,2.59284 -8.99389,4.05131 -4.53746,1.45846 -12.39698,2.34975 -8.75081,0.97231 -19.85137,0.97231 l -32.73451,-0.24308 q -4.61848,0 -14.98981,0.24308 z M 549.35699,414.501 q 4.45643,0.40513 9.31799,0.40513 8.26465,0 14.74673,-1.45847 6.48208,-1.45846 11.34364,-6.239 4.94259,-4.78053 7.29234,-12.23493 2.34976,-7.53541 2.34976,-15.39494 0,-9.64209 -3.48412,-16.2052 -3.48412,-6.64413 -9.31799,-9.23697 -5.75285,-2.59283 -15.71905,-2.59283 -5.83387,0 -13.77442,0.48616 l -2.75488,62.47105 z"
         style="font-style:normal;font-variant:normal;font-weight:normal;font-stretch:normal;font-size:165.94126892px;line-height:125%;font-family:'Eras Bold ITC';-inkscape-font-specification:'Eras Bold ITC, Normal';text-align:start;writing-mode:lr-tb;text-anchor:start;fill:#ffffff;fill-opacity:1"
         id="path4226"
         inkscape:connector-curvature="0" />
      <path
         d="m 665.9534,438.88983 q 0.81026,-6.56311 1.94462,-22.28215 1.13437,-15.71905 1.13437,-22.20113 l -37.10992,-66.11722 q 12.23493,0.16205 20.17548,0.16205 7.61645,0 18.23085,-0.16205 3.24104,8.1026 8.75081,19.36521 5.5908,11.18159 9.07492,20.01343 9.31799,-16.44828 14.98981,-25.60422 5.67182,-9.23697 8.1026,-13.77442 10.2903,0.16205 19.77034,0.16205 5.02362,0 18.23086,-0.16205 l -35.57042,52.42383 q -10.61441,15.71904 -10.61441,16.44828 l -0.081,0.81026 0,0.81026 -0.081,0.81026 -0.56718,12.31595 q -0.56719,12.23493 -0.89129,26.98166 -11.42467,-0.16205 -17.66367,-0.16205 -6.40105,0 -17.82572,0.16205 z"
         style="font-style:normal;font-variant:normal;font-weight:normal;font-stretch:normal;font-size:165.94126892px;line-height:125%;font-family:'Eras Bold ITC';-inkscape-font-specification:'Eras Bold ITC, Normal';text-align:start;writing-mode:lr-tb;text-anchor:start;fill:#ffffff;fill-opacity:1"
         id="path4228"
         inkscape:connector-curvature="0" />
    </g>
    <g
       transform="matrix(0.92944887,0,0,1.0759064,0,30)"
       style="font-style:normal;font-variant:normal;font-weight:normal;font-stretch:normal;font-size:135.10594177px;line-height:125%;font-family:'Eras Bold ITC';-inkscape-font-specification:'Eras Bold ITC, Normal';text-align:start;letter-spacing:0px;word-spacing:0px;writing-mode:lr-tb;text-anchor:start;display:inline;fill:#000000;fill-opacity:1;stroke:#ffffff;stroke-width:5;stroke-linecap:butt;stroke-linejoin:miter;stroke-miterlimit:4;stroke-dasharray:none;stroke-opacity:1"
       id="text4182-0">
      <path
         d="m 295.96226,526.33026 q 1.38536,-14.51333 1.84715,-22.82551 0.6597,-11.34679 1.25342,-31.1377 0.6597,-19.79091 0.6597,-27.90518 0,-2.90267 -0.066,-8.18025 8.77397,0.19791 13.91961,0.19791 7.1907,0 16.7563,-0.26388 9.56561,-0.32984 16.42646,-0.32984 8.24621,0 11.7426,0.46178 4.61788,0.59373 8.04831,2.11103 3.49639,1.51731 5.80533,3.76028 2.57282,2.63878 4.02415,6.33309 1.64924,4.22206 1.64924,9.03785 0,3.76027 -0.98954,7.19069 -0.92358,3.43043 -2.70476,6.13518 -1.71521,2.63879 -3.89221,4.41997 -2.177,1.78119 -4.28803,2.77073 -2.04506,0.98955 -5.54146,1.97909 3.4964,0.59373 5.60743,1.38537 2.11103,0.72566 4.48594,2.44088 2.44088,1.64924 4.354,4.28803 1.91312,2.63878 2.83669,5.93727 0.98955,3.23251 0.98955,6.86085 0,5.01369 -1.64924,9.43366 -1.64925,4.41997 -4.61788,7.58652 -2.50685,2.70476 -6.531,4.61788 -4.02415,1.91312 -8.24621,2.63879 -3.43043,0.52775 -12.53425,0.79163 -9.03785,0.26388 -19.19718,0.26388 l -17.35003,-0.066 -12.79812,0.066 z m 29.42248,-54.95276 9.3677,0 q 4.61788,0 6.531,-0.19791 1.97909,-0.26388 3.82624,-0.8576 1.84716,-0.59373 3.16655,-1.97909 1.38536,-1.38537 1.91312,-3.10058 0.59373,-1.71521 0.59373,-3.43042 0,-2.44088 -1.18746,-4.354 -1.12148,-1.91312 -3.6943,-2.8367 -2.57282,-0.92358 -7.85039,-0.92358 l -11.87455,0 -0.79164,17.67988 z m -1.5173,36.87706 12.66618,0 q 5.0137,0 7.38861,-0.59372 2.90267,-0.72567 4.41997,-1.91312 1.5173,-1.18746 2.37491,-3.23252 0.92357,-2.04506 0.92357,-4.55191 0,-2.177 -0.72566,-3.82624 -0.72567,-1.64924 -2.177,-2.77073 -1.45134,-1.12148 -3.56237,-1.58327 -2.11103,-0.52776 -6.59697,-0.52776 l -13.9196,0 -0.79164,18.99927 z"
         style="stroke-width:5;stroke-miterlimit:4;stroke-dasharray:none"
         id="path4231"
         inkscape:connector-curvature="0" />
      <path
         d="m 395.44456,436.28162 q 10.29128,0.13194 14.51334,0.13194 5.27757,0 14.05154,-0.13194 l -1.97909,28.03712 q -0.59373,7.91637 -0.92357,14.84319 -0.26388,6.92682 -0.26388,9.5656 0,5.0137 0.72566,8.37815 0.72567,3.36446 2.63879,5.73937 1.91312,2.30894 5.27758,3.49639 3.43042,1.18746 7.12473,1.18746 3.16654,0 5.93727,-0.72567 2.177,-0.59373 3.89221,-1.64924 1.5173,-0.98955 2.63879,-2.30894 1.38536,-1.58327 2.44088,-3.95818 1.05551,-2.24297 1.58327,-5.80534 0.59373,-3.62833 1.58327,-16.49242 0.85761,-10.95097 1.3194,-20.05479 0.39581,-8.83994 0.72566,-20.2527 9.96143,0.13194 15.70079,0.13194 l 13.39185,-0.13194 -3.23252,46.83849 q -0.066,1.31939 -0.066,2.177 -0.26388,13.7217 -1.71522,19.39509 -1.38536,5.60742 -4.68385,9.76352 -3.29848,4.15609 -9.63157,7.52054 -6.33309,3.29849 -14.3814,4.68385 -8.0483,1.38536 -16.29451,1.38536 -7.38861,0 -14.24946,-1.05551 -6.33309,-1.05552 -11.41275,-3.03461 -5.07967,-2.04506 -8.83994,-4.74982 -3.43043,-2.50684 -5.27758,-5.07966 -1.84715,-2.63879 -2.90267,-6.26712 -1.18745,-4.09013 -1.18745,-8.77397 0,-1.58328 0.13194,-4.74982 0.13194,-3.23252 0.59373,-9.23576 l 0.8576,-10.55515 q 0.32985,-4.15609 0.72567,-12.2044 l 1.18745,-26.05803 z"
         style="stroke-width:5;stroke-miterlimit:4;stroke-dasharray:none"
         id="path4233"
         inkscape:connector-curvature="0" />
      <path
         d="m 496.77403,526.33026 q 1.38536,-13.39185 1.91312,-21.50612 0.79163,-12.00649 1.5173,-32.98485 0.72567,-21.04433 0.72567,-28.301 l 0,-7.25667 q 19.85688,0.13194 36.94303,0.13194 17.21809,0 33.11679,-0.13194 -1.05552,15.17303 -1.05552,19.85688 l -5.73936,-0.19791 -4.61788,-0.066 -4.61788,-0.066 -12.99603,0 q -2.24297,0 -13.12797,0.13194 l -0.59373,15.37094 9.56561,0.19791 10.68709,0 q 4.61788,0 14.11751,-0.19791 -0.72566,12.46828 -0.72566,19.52703 -10.62112,-0.32984 -15.76676,-0.32984 -8.708,0 -18.99927,0.32984 l -0.6597,23.74909 -0.066,8.83994 0,2.90267 -14.18348,-0.13194 q -1.64925,0 -15.43691,0.13194 z"
         style="stroke-width:5;stroke-miterlimit:4;stroke-dasharray:none"
         id="path4235"
         inkscape:connector-curvature="0" />
      <path
         d="m 579.63197,526.33026 q 1.38536,-13.39185 1.91312,-21.50612 0.79163,-12.00649 1.5173,-32.98485 0.72567,-21.04433 0.72567,-28.301 l 0,-7.25667 q 19.85688,0.13194 36.94303,0.13194 17.21809,0 33.11679,-0.13194 -1.05552,15.17303 -1.05552,19.85688 l -5.73936,-0.19791 -4.61788,-0.066 -4.61788,-0.066 -12.99603,0 q -2.24297,0 -13.12797,0.13194 l -0.59373,15.37094 9.56561,0.19791 10.68709,0 q 4.61788,0 14.11752,-0.19791 -0.72567,12.46828 -0.72567,19.52703 -10.62112,-0.32984 -15.76676,-0.32984 -8.708,0 -18.99927,0.32984 l -0.6597,23.74909 -0.066,8.83994 0,2.90267 -14.18348,-0.13194 q -1.64925,0 -15.43691,0.13194 z"
         style="stroke-width:5;stroke-miterlimit:4;stroke-dasharray:none"
         id="path4237"
         inkscape:connector-curvature="0" />
      <path
         d="m 642.41745,526.33026 5.47549,-9.49964 34.10633,-64.25448 3.62833,-7.1907 q 1.58328,-3.16654 4.41997,-9.10382 11.61067,0.13194 16.95422,0.13194 9.30172,0 17.21809,-0.13194 l 9.63157,27.50937 19.593,52.9077 3.82625,9.63157 q -11.41276,-0.13194 -13.85364,-0.13194 -5.54145,0 -16.29451,0.13194 -2.90267,-10.885 -8.37816,-25.59624 l -33.24872,0 q -5.73937,11.61067 -11.87455,25.59624 -12.27036,-0.13194 -15.04109,-0.13194 -5.0137,0 -16.16258,0.13194 z m 51.06055,-44.79342 20.51658,0 q -7.65249,-23.28731 -8.37816,-25.66222 -4.354,9.69755 -7.3886,15.8987 l -4.74982,9.76352 z"
         style="stroke-width:5;stroke-miterlimit:4;stroke-dasharray:none"
         id="path4239"
         inkscape:connector-curvature="0" />
      <path
         d="m 768.60378,526.33026 q 1.64924,-15.56885 2.37491,-25.39833 1.38536,-17.94376 2.04506,-35.62364 0.72566,-17.74585 0.72566,-29.02667 8.97188,0.13194 15.8987,0.13194 4.68385,0 13.45782,-0.13194 l -1.58327,23.88103 -1.97909,37.33885 -0.26388,9.16979 q 11.34678,0.19791 14.77721,0.19791 17.35003,0 26.25594,-0.46179 l -1.45133,19.92285 q -17.35004,-0.13194 -33.05082,-0.13194 -21.24225,0 -37.20691,0.13194 z"
         style="stroke-width:5;stroke-miterlimit:4;stroke-dasharray:none"
         id="path4241"
         inkscape:connector-curvature="0" />
      <path
         d="m 902.91811,434.56641 q 10.55515,0 20.31867,2.8367 9.76351,2.8367 17.08615,9.10382 7.32264,6.20115 10.95097,14.31542 3.62833,8.11427 3.62833,18.66943 0,11.0829 -4.02415,20.38463 -3.95818,9.23576 -11.47873,15.70079 -7.52054,6.46503 -17.94375,9.49964 -10.42322,2.96863 -21.70404,2.96863 -11.14887,0 -21.37418,-2.90266 -10.2253,-2.96864 -17.81182,-9.49964 -7.52054,-6.59697 -10.68709,-14.64527 -3.16654,-8.04831 -3.16654,-17.87779 0,-14.44736 6.66294,-25.33237 6.72891,-10.95097 19.85688,-17.08615 13.19394,-6.13518 29.68636,-6.13518 z m -1.18745,19.85688 q -7.58652,0 -13.7217,3.76027 -6.13518,3.69431 -9.43367,10.35725 -3.29848,6.59697 -3.29848,14.18348 0,6.99279 2.96863,12.79812 3.03461,5.80534 9.16979,9.10382 6.13518,3.23252 12.99603,3.23252 7.32264,0 13.39185,-3.62834 6.13518,-3.6943 9.30173,-10.29127 3.23251,-6.66294 3.23251,-13.91961 0,-7.05875 -2.96863,-12.99603 -2.96864,-6.00324 -8.708,-9.30172 -5.73937,-3.29849 -12.93006,-3.29849 z"
         style="stroke-width:5;stroke-miterlimit:4;stroke-dasharray:none"
         id="path4243"
         inkscape:connector-curvature="0" />
    </g>
  </g>
  <g
     inkscape:label="Text [Editable]"
     id="g4209"
     inkscape:groupmode="layer"
     style="display:none"
     transform="translate(-67.858066,-175.78453)">
    <text
       transform="scale(1.0076445,0.99241348)"
       sodipodi:linespacing="125%"
       id="text4211"
       y="438.88983"
       x="180.04042"
       style="font-style:normal;font-weight:normal;font-size:165.94126892px;line-height:125%;font-family:sans-serif;letter-spacing:0px;word-spacing:0px;display:inline;fill:#ffffff;fill-opacity:1;stroke:none;stroke-width:1px;stroke-linecap:butt;stroke-linejoin:miter;stroke-opacity:1"
       xml:space="preserve"><tspan
         style="font-style:normal;font-variant:normal;font-weight:normal;font-stretch:normal;font-size:165.94126892px;line-height:125%;font-family:'Eras Bold ITC';-inkscape-font-specification:'Eras Bold ITC, Normal';text-align:start;writing-mode:lr-tb;text-anchor:start;fill:#ffffff;fill-opacity:1"
         y="438.88983"
         x="180.04042"
         id="tspan4213"
         sodipodi:role="line">STUDY</tspan></text>
    <text
       transform="scale(0.92944887,1.0759064)"
       sodipodi:linespacing="125%"
       id="text4215"
       y="526.33026"
       x="289.10141"
       style="font-style:normal;font-variant:normal;font-weight:normal;font-stretch:normal;font-size:135.10594177px;line-height:125%;font-family:'Eras Bold ITC';-inkscape-font-specification:'Eras Bold ITC, Normal';text-align:start;letter-spacing:0px;word-spacing:0px;writing-mode:lr-tb;text-anchor:start;display:inline;fill:#000000;fill-opacity:1;stroke:#ffffff;stroke-width:5;stroke-linecap:butt;stroke-linejoin:miter;stroke-miterlimit:4;stroke-dasharray:none;stroke-opacity:1"
       xml:space="preserve"><tspan
         dx="0 0 0 0 -8 5 0"
         style="stroke-width:5;stroke-miterlimit:4;stroke-dasharray:none"
         y="526.33026"
         x="289.10141"
         id="tspan4217"
         sodipodi:role="line">BUFFALO</tspan></text>
  </g>
  <path
     style="fill:none;fill-rule:evenodd;stroke:#ffffff;stroke-width:7;stroke-linecap:butt;stroke-linejoin:miter;stroke-miterlimit:4;stroke-dasharray:none;stroke-opacity:1"
     d="m 529.63453,558.10341 c 0,0 -0.99752,-26.83218 -2.00767,-31.37786 -1.01015,-4.54569 -13.0427,-5.28799 -26.17468,-7.30829 -13.13199,-2.02031 -92.42895,-16.66751 -92.42895,-16.66751"
     id="path4176"
     inkscape:connector-curvature="0"
     sodipodi:nodetypes="cssc" />
</svg>
