<?xml version="1.0" encoding="UTF-8" standalone="no"?>
<!-- Created with Inkscape (http://www.inkscape.org/) -->

<svg
   xmlns:dc="http://purl.org/dc/elements/1.1/"
   xmlns:cc="http://creativecommons.org/ns#"
   xmlns:rdf="http://www.w3.org/1999/02/22-rdf-syntax-ns#"
   xmlns:svg="http://www.w3.org/2000/svg"
   xmlns="http://www.w3.org/2000/svg"
   xmlns:sodipodi="http://sodipodi.sourceforge.net/DTD/sodipodi-0.dtd"
   xmlns:inkscape="http://www.inkscape.org/namespaces/inkscape"
   width="25"
   height="58"
   viewBox="0 0 24.999999 57.999997"
   id="svg2"
   version="1.1"
   inkscape:version="0.91 r13725"
   sodipodi:docname="trash.svg"
   inkscape:export-filename="E:\Josh's Files\Study Buffalo\Website\include\images\trash.png"
   inkscape:export-xdpi="90.000015"
   inkscape:export-ydpi="90.000015">
  <defs
     id="defs4" />
  <sodipodi:namedview
     id="base"
     pagecolor="#ffffff"
     bordercolor="#666666"
     borderopacity="1.0"
     inkscape:pageopacity="0.0"
     inkscape:pageshadow="2"
     inkscape:zoom="8.0000002"
     inkscape:cx="-26.354515"
     inkscape:cy="42.747378"
     inkscape:document-units="px"
     inkscape:current-layer="layer1"
     showgrid="false"
     fit-margin-top="0"
     fit-margin-left="0"
     fit-margin-right="0"
     fit-margin-bottom="0"
     inkscape:window-width="1920"
     inkscape:window-height="1057"
     inkscape:window-x="-8"
     inkscape:window-y="-8"
     inkscape:window-maximized="1"
     units="px" />
  <metadata
     id="metadata7">
    <rdf:RDF>
      <cc:Work
         rdf:about="">
        <dc:format>image/svg+xml</dc:format>
        <dc:type
           rdf:resource="http://purl.org/dc/dcmitype/StillImage" />
        <dc:title />
      </cc:Work>
    </rdf:RDF>
  </metadata>
  <g
     inkscape:label="Layer 1"
     inkscape:groupmode="layer"
     id="layer1"
     transform="translate(-129.28544,-595.3627)">
    <path
       style="fill:#298a00;fill-opacity:1;fill-rule:evenodd;stroke:none;stroke-width:1px;stroke-linecap:butt;stroke-linejoin:miter;stroke-opacity:1"
       d="m 139.21608,624.36271 c 0,0 -1.17451,0.13464 -2.15951,1.3753 -0.985,1.24066 -0.9639,3.20905 -0.9639,3.20905 l -4.8645,0 c 0,0 -0.31321,0.0221 -0.58368,0.34383 -0.27047,0.32172 -0.24301,0.57305 -0.24301,0.57305 l 0,1.2607 -1.11604,0 0,2.17757 2.39755,0 0,17.64981 c 0,0 0.0939,0.76253 0.8459,1.53424 0.89644,0.91998 1.83919,0.87611 1.83919,0.87611 l 14.89417,0 c 0,0 1.20762,-0.17847 1.82766,-0.87431 0.62004,-0.69584 0.84771,-1.53604 0.84771,-1.53604 l 0,-17.64981 2.34782,0 0,-2.17757 -1.10768,0 c 0,0 0.0102,-0.85138 -0.026,-1.2607 -0.0361,-0.40932 -0.1539,-0.43537 -0.39176,-0.64894 -0.23785,-0.21354 -0.5744,-0.26794 -0.5744,-0.26794 l -4.69903,0 c 0,0 0.12689,-1.93755 -0.86399,-3.20905 -0.99088,-1.2715 -2.01145,-1.3753 -2.01145,-1.3753 z m 0.46952,2.29217 4.29145,0 c 0,0 0.4486,0.12434 0.80115,0.57305 0.35254,0.44872 0.34722,0.81189 0.34722,0.81189 l 0,0.77003 -6.67815,0.0405 0,-0.81055 c 0,0 0.067,-0.36616 0.41481,-0.81189 0.34782,-0.44572 0.82352,-0.57305 0.82352,-0.57305 z m -5.8449,6.64733 15.91435,0 0,17.00357 c 0,0 -0.0644,0.45601 -0.25364,0.64848 -0.21741,0.22111 -0.61396,0.34159 -0.61396,0.34159 l -14.24018,0 c 0,0 -0.37787,-0.0841 -0.52739,-0.21512 -0.14953,-0.13109 -0.27918,-0.41009 -0.27918,-0.41009 z m 2.29695,2.24921 c -0.0222,0 -0.04,0.0243 -0.04,0.0544 l 0,13.44374 c 0,0.0301 0.0178,0.0544 0.04,0.0544 l 2.17693,0 c 0.0222,0 0.04,-0.0243 0.04,-0.0544 l 0,-13.44374 c 0,-0.0301 -0.0178,-0.0544 -0.04,-0.0544 z m 4.57176,0 c -0.0222,0 -0.04,0.0243 -0.04,0.0544 l 0,13.44374 c 0,0.0301 0.0178,0.0544 0.04,0.0544 l 2.17692,0 c 0.0222,0 0.04,-0.0243 0.04,-0.0544 l 0,-13.44374 c 0,-0.0301 -0.0178,-0.0544 -0.04,-0.0544 z m 4.57176,0 c -0.0222,0 -0.04,0.0243 -0.04,0.0544 l 0,13.44374 c 0,0.0301 0.0178,0.0544 0.04,0.0544 l 2.17692,0 c 0.0222,0 0.04,-0.0243 0.04,-0.0544 l 0,-13.44374 c 0,-0.0301 -0.0178,-0.0544 -0.04,-0.0544 z"
       id="path4153-8"
       inkscape:connector-curvature="0"
       sodipodi:nodetypes="csccsccccccsccscccccssccsccccsccccsccscsccsccssssssssssssssssssssssssssss" />
    <path
       style="fill:#656565;fill-opacity:1;fill-rule:evenodd;stroke:none;stroke-width:1px;stroke-linecap:butt;stroke-linejoin:miter;stroke-opacity:1"
       d="m 139.21609,595.36272 c 0,0 -1.17451,0.13464 -2.15951,1.3753 -0.985,1.24066 -0.9639,3.20905 -0.9639,3.20905 l -4.8645,0 c 0,0 -0.31321,0.0221 -0.58368,0.34383 -0.27047,0.32172 -0.24301,0.57305 -0.24301,0.57305 l 0,1.2607 -1.11604,0 0,2.17757 2.39755,0 0,17.64981 c 0,0 0.0939,0.76253 0.8459,1.53424 0.89644,0.91998 1.83919,0.87611 1.83919,0.87611 l 14.89417,0 c 0,0 1.20762,-0.17847 1.82766,-0.87431 0.62004,-0.69584 0.84771,-1.53604 0.84771,-1.53604 l 0,-17.64981 2.34782,0 0,-2.17757 -1.10768,0 c 0,0 0.0102,-0.85138 -0.026,-1.2607 -0.0361,-0.40932 -0.1539,-0.43537 -0.39176,-0.64894 -0.23785,-0.21354 -0.5744,-0.26794 -0.5744,-0.26794 l -4.69903,0 c 0,0 0.12689,-1.93755 -0.86399,-3.20905 -0.99088,-1.2715 -2.01145,-1.3753 -2.01145,-1.3753 z m 0.46952,2.29217 4.29145,0 c 0,0 0.4486,0.12434 0.80115,0.57305 0.35254,0.44872 0.34722,0.81189 0.34722,0.81189 l 0,0.77003 -6.67815,0.0405 0,-0.81055 c 0,0 0.067,-0.36616 0.41481,-0.81189 0.34782,-0.44572 0.82352,-0.57305 0.82352,-0.57305 z m -5.8449,6.64733 15.91435,0 0,17.00357 c 0,0 -0.0644,0.45601 -0.25364,0.64848 -0.21741,0.22111 -0.61396,0.34159 -0.61396,0.34159 l -14.24018,0 c 0,0 -0.37787,-0.0841 -0.52739,-0.21512 -0.14953,-0.13109 -0.27918,-0.41009 -0.27918,-0.41009 z m 2.29695,2.24921 c -0.0222,0 -0.04,0.0243 -0.04,0.0544 l 0,13.44374 c 0,0.0301 0.0178,0.0544 0.04,0.0544 l 2.17693,0 c 0.0222,0 0.04,-0.0243 0.04,-0.0544 l 0,-13.44374 c 0,-0.0301 -0.0178,-0.0544 -0.04,-0.0544 z m 4.57176,0 c -0.0222,0 -0.04,0.0243 -0.04,0.0544 l 0,13.44374 c 0,0.0301 0.0178,0.0544 0.04,0.0544 l 2.17692,0 c 0.0222,0 0.04,-0.0243 0.04,-0.0544 l 0,-13.44374 c 0,-0.0301 -0.0178,-0.0544 -0.04,-0.0544 z m 4.57176,0 c -0.0222,0 -0.04,0.0243 -0.04,0.0544 l 0,13.44374 c 0,0.0301 0.0178,0.0544 0.04,0.0544 l 2.17692,0 c 0.0222,0 0.04,-0.0243 0.04,-0.0544 l 0,-13.44374 c 0,-0.0301 -0.0178,-0.0544 -0.04,-0.0544 z"
       id="path4153-8-4"
       inkscape:connector-curvature="0"
       sodipodi:nodetypes="csccsccccccsccscccccssccsccccsccccsccscsccsccssssssssssssssssssssssssssss" />
  </g>
</svg>
